<mxfile host="65bd71144e">
    <diagram id="Moalmdn-Rq9gsZr9XwuZ" name="Page-2">
        <mxGraphModel dx="1512" dy="719" grid="1" gridSize="10" guides="1" tooltips="1" connect="1" arrows="1" fold="1" page="1" pageScale="1" pageWidth="850" pageHeight="1100" math="0" shadow="0">
            <root>
                <mxCell id="0"/>
                <mxCell id="1" parent="0"/>
                <mxCell id="6GT62l3RQo7o5EeHUmm6-1" value="" style="swimlane;startSize=0;" parent="1" vertex="1">
                    <mxGeometry x="280" y="160" width="630" height="710" as="geometry"/>
                </mxCell>
                <mxCell id="6GT62l3RQo7o5EeHUmm6-7" value="Thêm topics" style="ellipse;whiteSpace=wrap;html=1;" parent="6GT62l3RQo7o5EeHUmm6-1" vertex="1">
                    <mxGeometry x="450" y="570" width="100" height="40" as="geometry"/>
                </mxCell>
                <mxCell id="6GT62l3RQo7o5EeHUmm6-8" value="Tạo câu hỏi" style="ellipse;whiteSpace=wrap;html=1;" parent="6GT62l3RQo7o5EeHUmm6-1" vertex="1">
                    <mxGeometry x="50" y="30" width="100" height="40" as="geometry"/>
                </mxCell>
                <mxCell id="6GT62l3RQo7o5EeHUmm6-9" value="Tìm kiếm câu hỏi" style="ellipse;whiteSpace=wrap;html=1;" parent="6GT62l3RQo7o5EeHUmm6-1" vertex="1">
                    <mxGeometry x="50" y="90" width="100" height="40" as="geometry"/>
                </mxCell>
                <mxCell id="6GT62l3RQo7o5EeHUmm6-16" value="Tạo khóa học" style="ellipse;whiteSpace=wrap;html=1;" parent="6GT62l3RQo7o5EeHUmm6-1" vertex="1">
                    <mxGeometry x="450" y="500" width="100" height="40" as="geometry"/>
                </mxCell>
                <mxCell id="6GT62l3RQo7o5EeHUmm6-17" value="Quản lý khóa học" style="ellipse;whiteSpace=wrap;html=1;" parent="6GT62l3RQo7o5EeHUmm6-1" vertex="1">
                    <mxGeometry x="450" y="410" width="100" height="40" as="geometry"/>
                </mxCell>
                <mxCell id="6GT62l3RQo7o5EeHUmm6-21" value="&amp;lt;&amp;lt;include&amp;gt;&amp;gt;" style="html=1;verticalAlign=bottom;labelBackgroundColor=none;endArrow=open;endFill=0;dashed=1;entryX=0.5;entryY=1;entryDx=0;entryDy=0;exitX=0.5;exitY=0;exitDx=0;exitDy=0;" parent="6GT62l3RQo7o5EeHUmm6-1" source="6GT62l3RQo7o5EeHUmm6-16" target="6GT62l3RQo7o5EeHUmm6-17" edge="1">
                    <mxGeometry x="-0.5" width="160" relative="1" as="geometry">
                        <mxPoint x="250" y="390" as="sourcePoint"/>
                        <mxPoint x="410" y="390" as="targetPoint"/>
                        <mxPoint as="offset"/>
                    </mxGeometry>
                </mxCell>
                <mxCell id="6GT62l3RQo7o5EeHUmm6-22" value="Livestream" style="ellipse;whiteSpace=wrap;html=1;" parent="6GT62l3RQo7o5EeHUmm6-1" vertex="1">
                    <mxGeometry x="50" y="150" width="100" height="40" as="geometry"/>
                </mxCell>
                <mxCell id="6GT62l3RQo7o5EeHUmm6-24" value="tham gia livestream" style="ellipse;whiteSpace=wrap;html=1;" parent="6GT62l3RQo7o5EeHUmm6-1" vertex="1">
                    <mxGeometry x="50" y="230" width="100" height="40" as="geometry"/>
                </mxCell>
                <mxCell id="6GT62l3RQo7o5EeHUmm6-28" value="&amp;lt;&amp;lt;include&amp;gt;&amp;gt;" style="html=1;verticalAlign=bottom;labelBackgroundColor=none;endArrow=open;endFill=0;dashed=1;entryX=0.5;entryY=0;entryDx=0;entryDy=0;exitX=0.5;exitY=1;exitDx=0;exitDy=0;" parent="6GT62l3RQo7o5EeHUmm6-1" source="6GT62l3RQo7o5EeHUmm6-22" target="6GT62l3RQo7o5EeHUmm6-24" edge="1">
                    <mxGeometry x="0.2" width="160" relative="1" as="geometry">
                        <mxPoint x="310" y="280" as="sourcePoint"/>
                        <mxPoint x="310" y="240" as="targetPoint"/>
                        <mxPoint as="offset"/>
                    </mxGeometry>
                </mxCell>
                <mxCell id="6GT62l3RQo7o5EeHUmm6-31" value="truy cập khóa học" style="ellipse;whiteSpace=wrap;html=1;" parent="6GT62l3RQo7o5EeHUmm6-1" vertex="1">
                    <mxGeometry x="60" y="480" width="100" height="40" as="geometry"/>
                </mxCell>
                <mxCell id="6GT62l3RQo7o5EeHUmm6-33" value="&amp;lt;&amp;lt;extend&amp;gt;&amp;gt;" style="html=1;verticalAlign=bottom;labelBackgroundColor=none;endArrow=open;endFill=0;dashed=1;entryX=0;entryY=0.5;entryDx=0;entryDy=0;exitX=1;exitY=0.5;exitDx=0;exitDy=0;" parent="6GT62l3RQo7o5EeHUmm6-1" source="6GT62l3RQo7o5EeHUmm6-31" target="6GT62l3RQo7o5EeHUmm6-17" edge="1">
                    <mxGeometry width="160" relative="1" as="geometry">
                        <mxPoint x="100" y="200" as="sourcePoint"/>
                        <mxPoint x="260" y="200" as="targetPoint"/>
                    </mxGeometry>
                </mxCell>
                <mxCell id="6GT62l3RQo7o5EeHUmm6-34" value="kết bạn" style="ellipse;whiteSpace=wrap;html=1;" parent="6GT62l3RQo7o5EeHUmm6-1" vertex="1">
                    <mxGeometry x="210" y="380" width="100" height="40" as="geometry"/>
                </mxCell>
                <mxCell id="i56TuhA1C-hoQu62SCrc-1" value="Thống kê, báo cáo" style="ellipse;whiteSpace=wrap;html=1;" parent="6GT62l3RQo7o5EeHUmm6-1" vertex="1">
                    <mxGeometry x="450" y="630" width="100" height="40" as="geometry"/>
                </mxCell>
                <mxCell id="i56TuhA1C-hoQu62SCrc-3" value="&lt;span style=&quot;font-weight: normal;&quot;&gt;trò chuyện&lt;/span&gt;" style="ellipse;whiteSpace=wrap;html=1;fontStyle=1" parent="6GT62l3RQo7o5EeHUmm6-1" vertex="1">
                    <mxGeometry x="210" y="250" width="100" height="40" as="geometry"/>
                </mxCell>
                <mxCell id="i56TuhA1C-hoQu62SCrc-4" value="&lt;span style=&quot;font-weight: normal;&quot;&gt;gửi file&lt;/span&gt;" style="ellipse;whiteSpace=wrap;html=1;fontStyle=1" parent="6GT62l3RQo7o5EeHUmm6-1" vertex="1">
                    <mxGeometry x="340" y="260" width="100" height="40" as="geometry"/>
                </mxCell>
                <mxCell id="i56TuhA1C-hoQu62SCrc-5" value="&lt;span style=&quot;font-weight: normal;&quot;&gt;tạo nhóm&lt;/span&gt;" style="ellipse;whiteSpace=wrap;html=1;fontStyle=1" parent="6GT62l3RQo7o5EeHUmm6-1" vertex="1">
                    <mxGeometry x="100" y="280" width="100" height="40" as="geometry"/>
                </mxCell>
                <mxCell id="i56TuhA1C-hoQu62SCrc-6" value="&amp;lt;&amp;lt;extend&amp;gt;&amp;gt;" style="html=1;verticalAlign=bottom;labelBackgroundColor=none;endArrow=open;endFill=0;dashed=1;exitX=0.5;exitY=1;exitDx=0;exitDy=0;" parent="6GT62l3RQo7o5EeHUmm6-1" source="i56TuhA1C-hoQu62SCrc-3" edge="1">
                    <mxGeometry width="160" relative="1" as="geometry">
                        <mxPoint x="160" y="510" as="sourcePoint"/>
                        <mxPoint x="260" y="370" as="targetPoint"/>
                    </mxGeometry>
                </mxCell>
                <mxCell id="i56TuhA1C-hoQu62SCrc-7" value="&amp;lt;&amp;lt;extend&amp;gt;&amp;gt;" style="html=1;verticalAlign=bottom;labelBackgroundColor=none;endArrow=open;endFill=0;dashed=1;entryX=0.5;entryY=0;entryDx=0;entryDy=0;exitX=0.5;exitY=1;exitDx=0;exitDy=0;" parent="6GT62l3RQo7o5EeHUmm6-1" source="i56TuhA1C-hoQu62SCrc-4" target="6GT62l3RQo7o5EeHUmm6-34" edge="1">
                    <mxGeometry width="160" relative="1" as="geometry">
                        <mxPoint x="270" y="300" as="sourcePoint"/>
                        <mxPoint x="270" y="345" as="targetPoint"/>
                    </mxGeometry>
                </mxCell>
                <mxCell id="i56TuhA1C-hoQu62SCrc-8" value="&amp;lt;&amp;lt;extend&amp;gt;&amp;gt;" style="html=1;verticalAlign=bottom;labelBackgroundColor=none;endArrow=open;endFill=0;dashed=1;exitX=0.5;exitY=1;exitDx=0;exitDy=0;entryX=0.5;entryY=0;entryDx=0;entryDy=0;" parent="6GT62l3RQo7o5EeHUmm6-1" source="i56TuhA1C-hoQu62SCrc-5" target="6GT62l3RQo7o5EeHUmm6-34" edge="1">
                    <mxGeometry width="160" relative="1" as="geometry">
                        <mxPoint x="280" y="310" as="sourcePoint"/>
                        <mxPoint x="260" y="370" as="targetPoint"/>
                    </mxGeometry>
                </mxCell>
                <mxCell id="6GT62l3RQo7o5EeHUmm6-2" value="Admin" style="shape=umlActor;verticalLabelPosition=bottom;verticalAlign=top;html=1;outlineConnect=0;" parent="1" vertex="1">
                    <mxGeometry x="970" y="570" width="30" height="60" as="geometry"/>
                </mxCell>
                <mxCell id="6GT62l3RQo7o5EeHUmm6-4" value="hoc vien" style="shape=umlActor;verticalLabelPosition=bottom;verticalAlign=top;html=1;outlineConnect=0;" parent="1" vertex="1">
                    <mxGeometry x="150" y="410" width="30" height="60" as="geometry"/>
                </mxCell>
                <mxCell id="6GT62l3RQo7o5EeHUmm6-18" style="edgeStyle=none;html=1;exitX=0.5;exitY=0.5;exitDx=0;exitDy=0;exitPerimeter=0;" parent="1" source="6GT62l3RQo7o5EeHUmm6-5" edge="1">
                    <mxGeometry relative="1" as="geometry">
                        <mxPoint x="985" y="380" as="targetPoint"/>
                    </mxGeometry>
                </mxCell>
                <mxCell id="6GT62l3RQo7o5EeHUmm6-5" value="Giang vien" style="shape=umlActor;verticalLabelPosition=bottom;verticalAlign=top;html=1;outlineConnect=0;" parent="1" vertex="1">
                    <mxGeometry x="970" y="350" width="30" height="60" as="geometry"/>
                </mxCell>
                <mxCell id="6GT62l3RQo7o5EeHUmm6-10" value="" style="endArrow=none;html=1;entryX=0.5;entryY=0.5;entryDx=0;entryDy=0;entryPerimeter=0;exitX=1;exitY=0.5;exitDx=0;exitDy=0;" parent="1" source="6GT62l3RQo7o5EeHUmm6-8" target="6GT62l3RQo7o5EeHUmm6-5" edge="1">
                    <mxGeometry width="50" height="50" relative="1" as="geometry">
                        <mxPoint x="600" y="480" as="sourcePoint"/>
                        <mxPoint x="650" y="430" as="targetPoint"/>
                    </mxGeometry>
                </mxCell>
                <mxCell id="6GT62l3RQo7o5EeHUmm6-13" value="" style="endArrow=none;html=1;entryX=0.5;entryY=0.5;entryDx=0;entryDy=0;entryPerimeter=0;exitX=0;exitY=0.5;exitDx=0;exitDy=0;" parent="1" source="6GT62l3RQo7o5EeHUmm6-9" target="6GT62l3RQo7o5EeHUmm6-4" edge="1">
                    <mxGeometry width="50" height="50" relative="1" as="geometry">
                        <mxPoint x="810" y="470" as="sourcePoint"/>
                        <mxPoint x="915" y="420" as="targetPoint"/>
                    </mxGeometry>
                </mxCell>
                <mxCell id="6GT62l3RQo7o5EeHUmm6-15" value="" style="endArrow=none;html=1;entryX=1;entryY=0.5;entryDx=0;entryDy=0;exitX=0.5;exitY=0.5;exitDx=0;exitDy=0;exitPerimeter=0;" parent="1" source="6GT62l3RQo7o5EeHUmm6-2" target="6GT62l3RQo7o5EeHUmm6-7" edge="1">
                    <mxGeometry width="50" height="50" relative="1" as="geometry">
                        <mxPoint x="830" y="490" as="sourcePoint"/>
                        <mxPoint x="935" y="440" as="targetPoint"/>
                    </mxGeometry>
                </mxCell>
                <mxCell id="6GT62l3RQo7o5EeHUmm6-19" value="" style="endArrow=none;html=1;entryX=0.5;entryY=0.5;entryDx=0;entryDy=0;entryPerimeter=0;exitX=1;exitY=0.5;exitDx=0;exitDy=0;" parent="1" source="6GT62l3RQo7o5EeHUmm6-17" target="6GT62l3RQo7o5EeHUmm6-5" edge="1">
                    <mxGeometry width="50" height="50" relative="1" as="geometry">
                        <mxPoint x="850" y="470" as="sourcePoint"/>
                        <mxPoint x="995" y="390" as="targetPoint"/>
                    </mxGeometry>
                </mxCell>
                <mxCell id="6GT62l3RQo7o5EeHUmm6-20" value="" style="endArrow=none;html=1;entryX=1;entryY=0.5;entryDx=0;entryDy=0;exitX=0.5;exitY=0.5;exitDx=0;exitDy=0;exitPerimeter=0;" parent="1" source="6GT62l3RQo7o5EeHUmm6-2" target="6GT62l3RQo7o5EeHUmm6-16" edge="1">
                    <mxGeometry width="50" height="50" relative="1" as="geometry">
                        <mxPoint x="860" y="480" as="sourcePoint"/>
                        <mxPoint x="1005" y="400" as="targetPoint"/>
                    </mxGeometry>
                </mxCell>
                <mxCell id="6GT62l3RQo7o5EeHUmm6-23" value="" style="endArrow=none;html=1;entryX=0.5;entryY=0.5;entryDx=0;entryDy=0;entryPerimeter=0;exitX=1;exitY=0.5;exitDx=0;exitDy=0;" parent="1" source="6GT62l3RQo7o5EeHUmm6-22" target="6GT62l3RQo7o5EeHUmm6-5" edge="1">
                    <mxGeometry width="50" height="50" relative="1" as="geometry">
                        <mxPoint x="850" y="380" as="sourcePoint"/>
                        <mxPoint x="995" y="390" as="targetPoint"/>
                    </mxGeometry>
                </mxCell>
                <mxCell id="6GT62l3RQo7o5EeHUmm6-27" value="" style="endArrow=none;html=1;entryX=0.5;entryY=0.5;entryDx=0;entryDy=0;entryPerimeter=0;exitX=1;exitY=0.5;exitDx=0;exitDy=0;" parent="1" source="6GT62l3RQo7o5EeHUmm6-9" target="6GT62l3RQo7o5EeHUmm6-5" edge="1">
                    <mxGeometry width="50" height="50" relative="1" as="geometry">
                        <mxPoint x="670" y="330" as="sourcePoint"/>
                        <mxPoint x="995" y="390" as="targetPoint"/>
                    </mxGeometry>
                </mxCell>
                <mxCell id="6GT62l3RQo7o5EeHUmm6-30" value="" style="endArrow=none;html=1;entryX=0.5;entryY=0.5;entryDx=0;entryDy=0;entryPerimeter=0;exitX=0;exitY=0.5;exitDx=0;exitDy=0;" parent="1" source="6GT62l3RQo7o5EeHUmm6-24" target="6GT62l3RQo7o5EeHUmm6-4" edge="1">
                    <mxGeometry width="50" height="50" relative="1" as="geometry">
                        <mxPoint x="570" y="400" as="sourcePoint"/>
                        <mxPoint x="375" y="620" as="targetPoint"/>
                    </mxGeometry>
                </mxCell>
                <mxCell id="6GT62l3RQo7o5EeHUmm6-32" value="" style="endArrow=none;html=1;entryX=0.5;entryY=0.5;entryDx=0;entryDy=0;entryPerimeter=0;exitX=0;exitY=0.5;exitDx=0;exitDy=0;" parent="1" source="6GT62l3RQo7o5EeHUmm6-31" target="6GT62l3RQo7o5EeHUmm6-4" edge="1">
                    <mxGeometry width="50" height="50" relative="1" as="geometry">
                        <mxPoint x="570" y="550" as="sourcePoint"/>
                        <mxPoint x="375" y="620" as="targetPoint"/>
                    </mxGeometry>
                </mxCell>
                <mxCell id="6GT62l3RQo7o5EeHUmm6-35" value="" style="endArrow=none;html=1;entryX=0.5;entryY=0.5;entryDx=0;entryDy=0;entryPerimeter=0;exitX=0;exitY=0.5;exitDx=0;exitDy=0;" parent="1" source="6GT62l3RQo7o5EeHUmm6-34" target="6GT62l3RQo7o5EeHUmm6-4" edge="1">
                    <mxGeometry width="50" height="50" relative="1" as="geometry">
                        <mxPoint x="410" y="580" as="sourcePoint"/>
                        <mxPoint x="225" y="450" as="targetPoint"/>
                    </mxGeometry>
                </mxCell>
                <mxCell id="6GT62l3RQo7o5EeHUmm6-36" value="" style="endArrow=none;html=1;entryX=0.5;entryY=0.5;entryDx=0;entryDy=0;entryPerimeter=0;exitX=1;exitY=0.5;exitDx=0;exitDy=0;" parent="1" source="6GT62l3RQo7o5EeHUmm6-34" target="6GT62l3RQo7o5EeHUmm6-5" edge="1">
                    <mxGeometry width="50" height="50" relative="1" as="geometry">
                        <mxPoint x="510" y="340" as="sourcePoint"/>
                        <mxPoint x="995" y="390" as="targetPoint"/>
                    </mxGeometry>
                </mxCell>
                <mxCell id="i56TuhA1C-hoQu62SCrc-2" value="" style="endArrow=none;html=1;entryX=1;entryY=0.5;entryDx=0;entryDy=0;exitX=0.5;exitY=0.5;exitDx=0;exitDy=0;exitPerimeter=0;" parent="1" source="6GT62l3RQo7o5EeHUmm6-2" target="i56TuhA1C-hoQu62SCrc-1" edge="1">
                    <mxGeometry width="50" height="50" relative="1" as="geometry">
                        <mxPoint x="995" y="610" as="sourcePoint"/>
                        <mxPoint x="840" y="620" as="targetPoint"/>
                    </mxGeometry>
                </mxCell>
                <mxCell id="05L78-aB4a2ffXBhaqOG-1" value="" style="endArrow=none;html=1;entryX=0.5;entryY=0.5;entryDx=0;entryDy=0;entryPerimeter=0;exitX=0;exitY=0.5;exitDx=0;exitDy=0;" edge="1" parent="1" source="6GT62l3RQo7o5EeHUmm6-8" target="6GT62l3RQo7o5EeHUmm6-4">
                    <mxGeometry width="50" height="50" relative="1" as="geometry">
                        <mxPoint x="340.000000000005" y="290" as="sourcePoint"/>
                        <mxPoint x="175" y="450" as="targetPoint"/>
                    </mxGeometry>
                </mxCell>
            </root>
        </mxGraphModel>
    </diagram>
    <diagram id="Bp62epHQjVlannMjb0bE" name="Page-3">
        <mxGraphModel dx="1461" dy="1819" grid="1" gridSize="10" guides="1" tooltips="1" connect="1" arrows="1" fold="1" page="1" pageScale="1" pageWidth="850" pageHeight="1100" math="0" shadow="0">
            <root>
                <mxCell id="0"/>
                <mxCell id="1" parent="0"/>
                <mxCell id="vjC0-infNikBf5PddxFb-1" value="LiveStream" style="swimlane;childLayout=stackLayout;resizeParent=1;resizeParentMax=0;startSize=20;horizontal=0;horizontalStack=1;" parent="1" vertex="1">
                    <mxGeometry x="230" y="-160" width="680" height="800" as="geometry"/>
                </mxCell>
                <mxCell id="vjC0-infNikBf5PddxFb-2" value="Giảng viên" style="swimlane;startSize=20;" parent="vjC0-infNikBf5PddxFb-1" vertex="1">
                    <mxGeometry x="20" width="260" height="800" as="geometry"/>
                </mxCell>
                <mxCell id="vjC0-infNikBf5PddxFb-9" style="edgeStyle=none;html=1;exitX=0.5;exitY=1;exitDx=0;exitDy=0;entryX=0.5;entryY=0;entryDx=0;entryDy=0;" parent="vjC0-infNikBf5PddxFb-2" source="vjC0-infNikBf5PddxFb-6" target="vjC0-infNikBf5PddxFb-8" edge="1">
                    <mxGeometry relative="1" as="geometry"/>
                </mxCell>
                <mxCell id="vjC0-infNikBf5PddxFb-6" value="" style="ellipse;shape=doubleEllipse;html=1;dashed=0;whitespace=wrap;aspect=fixed;" parent="vjC0-infNikBf5PddxFb-2" vertex="1">
                    <mxGeometry x="85" y="40" width="40" height="40" as="geometry"/>
                </mxCell>
                <mxCell id="vjC0-infNikBf5PddxFb-8" value="Chọn chức năng &lt;br&gt;tạo livestream" style="html=1;dashed=0;whitespace=wrap;" parent="vjC0-infNikBf5PddxFb-2" vertex="1">
                    <mxGeometry x="55" y="110" width="100" height="50" as="geometry"/>
                </mxCell>
                <mxCell id="vjC0-infNikBf5PddxFb-20" value="Kết thúc livestream" style="whiteSpace=wrap;html=1;fillColor=rgb(24, 20, 29);dashed=0;" parent="vjC0-infNikBf5PddxFb-2" vertex="1">
                    <mxGeometry x="45" y="430" width="120" height="60" as="geometry"/>
                </mxCell>
                <mxCell id="vjC0-infNikBf5PddxFb-3" value="Học viên" style="swimlane;startSize=20;" parent="vjC0-infNikBf5PddxFb-1" vertex="1">
                    <mxGeometry x="280" width="200" height="800" as="geometry"/>
                </mxCell>
                <mxCell id="vjC0-infNikBf5PddxFb-17" value="" style="edgeStyle=none;html=1;" parent="vjC0-infNikBf5PddxFb-3" source="vjC0-infNikBf5PddxFb-14" target="vjC0-infNikBf5PddxFb-16" edge="1">
                    <mxGeometry relative="1" as="geometry"/>
                </mxCell>
                <mxCell id="vjC0-infNikBf5PddxFb-14" value="Tham gia buổi livestream" style="whiteSpace=wrap;html=1;fillColor=rgb(24, 20, 29);dashed=0;" parent="vjC0-infNikBf5PddxFb-3" vertex="1">
                    <mxGeometry x="40" y="210" width="120" height="60" as="geometry"/>
                </mxCell>
                <mxCell id="vjC0-infNikBf5PddxFb-19" style="edgeStyle=none;html=1;exitX=0.5;exitY=1;exitDx=0;exitDy=0;entryX=0.5;entryY=0;entryDx=0;entryDy=0;" parent="vjC0-infNikBf5PddxFb-3" source="vjC0-infNikBf5PddxFb-16" target="vjC0-infNikBf5PddxFb-18" edge="1">
                    <mxGeometry relative="1" as="geometry"/>
                </mxCell>
                <mxCell id="vjC0-infNikBf5PddxFb-16" value="Xem giảng viên live" style="whiteSpace=wrap;html=1;fillColor=rgb(24, 20, 29);dashed=0;" parent="vjC0-infNikBf5PddxFb-3" vertex="1">
                    <mxGeometry x="40" y="320" width="120" height="60" as="geometry"/>
                </mxCell>
                <mxCell id="vjC0-infNikBf5PddxFb-18" value="Trao đổi trong hộp thoại" style="whiteSpace=wrap;html=1;fillColor=rgb(24, 20, 29);dashed=0;" parent="vjC0-infNikBf5PddxFb-3" vertex="1">
                    <mxGeometry x="40" y="430" width="120" height="60" as="geometry"/>
                </mxCell>
                <mxCell id="vjC0-infNikBf5PddxFb-27" style="edgeStyle=none;html=1;exitX=0.5;exitY=1;exitDx=0;exitDy=0;entryX=0.5;entryY=0;entryDx=0;entryDy=0;" parent="vjC0-infNikBf5PddxFb-3" source="vjC0-infNikBf5PddxFb-22" target="vjC0-infNikBf5PddxFb-23" edge="1">
                    <mxGeometry relative="1" as="geometry"/>
                </mxCell>
                <mxCell id="vjC0-infNikBf5PddxFb-22" value="Xem lại video livestream" style="whiteSpace=wrap;html=1;fillColor=rgb(24, 20, 29);dashed=0;" parent="vjC0-infNikBf5PddxFb-3" vertex="1">
                    <mxGeometry x="40" y="590" width="120" height="60" as="geometry"/>
                </mxCell>
                <mxCell id="vjC0-infNikBf5PddxFb-23" value="" style="shape=ellipse;html=1;dashed=0;whitespace=wrap;aspect=fixed;strokeWidth=5;perimeter=ellipsePerimeter;" parent="vjC0-infNikBf5PddxFb-3" vertex="1">
                    <mxGeometry x="70" y="690" width="60" height="60" as="geometry"/>
                </mxCell>
                <mxCell id="vjC0-infNikBf5PddxFb-4" value="Hệ thống" style="swimlane;startSize=20;" parent="vjC0-infNikBf5PddxFb-1" vertex="1">
                    <mxGeometry x="480" width="200" height="800" as="geometry"/>
                </mxCell>
                <mxCell id="vjC0-infNikBf5PddxFb-13" value="" style="edgeStyle=none;html=1;" parent="vjC0-infNikBf5PddxFb-4" source="vjC0-infNikBf5PddxFb-10" target="vjC0-infNikBf5PddxFb-12" edge="1">
                    <mxGeometry relative="1" as="geometry"/>
                </mxCell>
                <mxCell id="vjC0-infNikBf5PddxFb-10" value="Tạo livestream" style="whiteSpace=wrap;html=1;fillColor=rgb(24, 20, 29);dashed=0;" parent="vjC0-infNikBf5PddxFb-4" vertex="1">
                    <mxGeometry x="40" y="105" width="120" height="60" as="geometry"/>
                </mxCell>
                <mxCell id="vjC0-infNikBf5PddxFb-12" value="Cập nhật thông tin&lt;br&gt;livestream lên giao diện" style="whiteSpace=wrap;html=1;fillColor=rgb(24, 20, 29);dashed=0;" parent="vjC0-infNikBf5PddxFb-4" vertex="1">
                    <mxGeometry x="40" y="210" width="120" height="60" as="geometry"/>
                </mxCell>
                <mxCell id="vjC0-infNikBf5PddxFb-21" value="Lưu video livestream" style="whiteSpace=wrap;html=1;fillColor=rgb(24, 20, 29);dashed=0;" parent="vjC0-infNikBf5PddxFb-4" vertex="1">
                    <mxGeometry x="40" y="510" width="120" height="60" as="geometry"/>
                </mxCell>
                <mxCell id="vjC0-infNikBf5PddxFb-11" value="" style="edgeStyle=none;html=1;" parent="vjC0-infNikBf5PddxFb-1" source="vjC0-infNikBf5PddxFb-8" target="vjC0-infNikBf5PddxFb-10" edge="1">
                    <mxGeometry relative="1" as="geometry"/>
                </mxCell>
                <mxCell id="vjC0-infNikBf5PddxFb-15" style="edgeStyle=none;html=1;exitX=0;exitY=0.5;exitDx=0;exitDy=0;entryX=1;entryY=0.5;entryDx=0;entryDy=0;" parent="vjC0-infNikBf5PddxFb-1" source="vjC0-infNikBf5PddxFb-12" target="vjC0-infNikBf5PddxFb-14" edge="1">
                    <mxGeometry relative="1" as="geometry"/>
                </mxCell>
                <mxCell id="vjC0-infNikBf5PddxFb-24" style="edgeStyle=none;html=1;exitX=0;exitY=0.5;exitDx=0;exitDy=0;entryX=1;entryY=0.5;entryDx=0;entryDy=0;" parent="vjC0-infNikBf5PddxFb-1" source="vjC0-infNikBf5PddxFb-18" target="vjC0-infNikBf5PddxFb-20" edge="1">
                    <mxGeometry relative="1" as="geometry"/>
                </mxCell>
                <mxCell id="vjC0-infNikBf5PddxFb-25" style="edgeStyle=none;html=1;exitX=0.5;exitY=1;exitDx=0;exitDy=0;entryX=0;entryY=0.5;entryDx=0;entryDy=0;" parent="vjC0-infNikBf5PddxFb-1" source="vjC0-infNikBf5PddxFb-20" target="vjC0-infNikBf5PddxFb-21" edge="1">
                    <mxGeometry relative="1" as="geometry">
                        <Array as="points">
                            <mxPoint x="125" y="540"/>
                        </Array>
                    </mxGeometry>
                </mxCell>
                <mxCell id="vjC0-infNikBf5PddxFb-26" style="edgeStyle=none;html=1;exitX=0.5;exitY=1;exitDx=0;exitDy=0;entryX=1;entryY=0.5;entryDx=0;entryDy=0;" parent="vjC0-infNikBf5PddxFb-1" source="vjC0-infNikBf5PddxFb-21" target="vjC0-infNikBf5PddxFb-22" edge="1">
                    <mxGeometry relative="1" as="geometry">
                        <Array as="points">
                            <mxPoint x="580" y="620"/>
                        </Array>
                    </mxGeometry>
                </mxCell>
            </root>
        </mxGraphModel>
    </diagram>
    <diagram id="b6j3Y_hhtYI8LSnY7w2d" name="Page-4">
        <mxGraphModel dx="2092" dy="1711" grid="1" gridSize="10" guides="1" tooltips="1" connect="1" arrows="1" fold="1" page="1" pageScale="1" pageWidth="850" pageHeight="1100" math="0" shadow="0">
            <root>
                <mxCell id="0"/>
                <mxCell id="1" parent="0"/>
                <mxCell id="f_4cNn8Xf5raTIrdPCln-25" style="edgeStyle=none;html=1;exitX=0.5;exitY=0;exitDx=0;exitDy=0;entryX=0.5;entryY=1;entryDx=0;entryDy=0;" parent="1" source="f_4cNn8Xf5raTIrdPCln-5" target="f_4cNn8Xf5raTIrdPCln-24" edge="1">
                    <mxGeometry relative="1" as="geometry"/>
                </mxCell>
                <mxCell id="f_4cNn8Xf5raTIrdPCln-5" value="Admin" style="swimlane;childLayout=stackLayout;horizontal=1;startSize=30;horizontalStack=0;rounded=1;fontSize=14;fontStyle=0;strokeWidth=2;resizeParent=0;resizeLast=1;shadow=0;dashed=0;align=center;" parent="1" vertex="1">
                    <mxGeometry x="-250" y="130" width="160" height="120" as="geometry"/>
                </mxCell>
                <mxCell id="f_4cNn8Xf5raTIrdPCln-6" value="+Attribute1&#10;+Attribute2&#10;+Attribute3" style="align=left;strokeColor=none;fillColor=none;spacingLeft=4;fontSize=12;verticalAlign=top;resizable=0;rotatable=0;part=1;" parent="f_4cNn8Xf5raTIrdPCln-5" vertex="1">
                    <mxGeometry y="30" width="160" height="90" as="geometry"/>
                </mxCell>
                <mxCell id="f_4cNn8Xf5raTIrdPCln-26" style="edgeStyle=none;html=1;exitX=0.5;exitY=0;exitDx=0;exitDy=0;entryX=0.5;entryY=1;entryDx=0;entryDy=0;" parent="1" source="f_4cNn8Xf5raTIrdPCln-7" target="f_4cNn8Xf5raTIrdPCln-24" edge="1">
                    <mxGeometry relative="1" as="geometry">
                        <mxPoint x="330" y="70" as="targetPoint"/>
                    </mxGeometry>
                </mxCell>
                <mxCell id="f_4cNn8Xf5raTIrdPCln-7" value="giang vien" style="swimlane;childLayout=stackLayout;horizontal=1;startSize=30;horizontalStack=0;rounded=1;fontSize=14;fontStyle=0;strokeWidth=2;resizeParent=0;resizeLast=1;shadow=0;dashed=0;align=center;" parent="1" vertex="1">
                    <mxGeometry x="220" y="120" width="160" height="120" as="geometry"/>
                </mxCell>
                <mxCell id="f_4cNn8Xf5raTIrdPCln-8" value="+Attribute1&#10;+Attribute2&#10;+Attribute3" style="align=left;strokeColor=none;fillColor=none;spacingLeft=4;fontSize=12;verticalAlign=top;resizable=0;rotatable=0;part=1;" parent="f_4cNn8Xf5raTIrdPCln-7" vertex="1">
                    <mxGeometry y="30" width="160" height="90" as="geometry"/>
                </mxCell>
                <mxCell id="f_4cNn8Xf5raTIrdPCln-27" style="edgeStyle=none;html=1;exitX=0.5;exitY=0;exitDx=0;exitDy=0;entryX=0.5;entryY=1;entryDx=0;entryDy=0;" parent="1" source="f_4cNn8Xf5raTIrdPCln-9" target="f_4cNn8Xf5raTIrdPCln-24" edge="1">
                    <mxGeometry relative="1" as="geometry"/>
                </mxCell>
                <mxCell id="f_4cNn8Xf5raTIrdPCln-9" value="Hoc vien" style="swimlane;childLayout=stackLayout;horizontal=1;startSize=30;horizontalStack=0;rounded=1;fontSize=14;fontStyle=0;strokeWidth=2;resizeParent=0;resizeLast=1;shadow=0;dashed=0;align=center;" parent="1" vertex="1">
                    <mxGeometry x="640" y="110" width="160" height="120" as="geometry"/>
                </mxCell>
                <mxCell id="f_4cNn8Xf5raTIrdPCln-10" value="+Attribute1&#10;+Attribute2&#10;+Attribute3" style="align=left;strokeColor=none;fillColor=none;spacingLeft=4;fontSize=12;verticalAlign=top;resizable=0;rotatable=0;part=1;" parent="f_4cNn8Xf5raTIrdPCln-9" vertex="1">
                    <mxGeometry y="30" width="160" height="90" as="geometry"/>
                </mxCell>
                <mxCell id="f_4cNn8Xf5raTIrdPCln-11" value="topic" style="swimlane;childLayout=stackLayout;horizontal=1;startSize=30;horizontalStack=0;rounded=1;fontSize=14;fontStyle=0;strokeWidth=2;resizeParent=0;resizeLast=1;shadow=0;dashed=0;align=center;" parent="1" vertex="1">
                    <mxGeometry x="-250" y="395" width="160" height="120" as="geometry"/>
                </mxCell>
                <mxCell id="f_4cNn8Xf5raTIrdPCln-12" value="+tên&#10;+mô tả&#10;+hình ảnh" style="align=left;strokeColor=none;fillColor=none;spacingLeft=4;fontSize=12;verticalAlign=top;resizable=0;rotatable=0;part=1;" parent="f_4cNn8Xf5raTIrdPCln-11" vertex="1">
                    <mxGeometry y="30" width="160" height="90" as="geometry"/>
                </mxCell>
                <mxCell id="f_4cNn8Xf5raTIrdPCln-15" value="khóa học" style="swimlane;childLayout=stackLayout;horizontal=1;startSize=30;horizontalStack=0;rounded=1;fontSize=14;fontStyle=0;strokeWidth=2;resizeParent=0;resizeLast=1;shadow=0;dashed=0;align=center;" parent="1" vertex="1">
                    <mxGeometry x="180" y="380" width="160" height="150" as="geometry"/>
                </mxCell>
                <mxCell id="f_4cNn8Xf5raTIrdPCln-16" value="+tên&#10;+giới thiệu&#10;+hình ảnh&#10;+các video&#10;+slide&#10;+bài tập&#10;+giảng viên phụ trách" style="align=left;strokeColor=none;fillColor=none;spacingLeft=4;fontSize=12;verticalAlign=top;resizable=0;rotatable=0;part=1;" parent="f_4cNn8Xf5raTIrdPCln-15" vertex="1">
                    <mxGeometry y="30" width="160" height="120" as="geometry"/>
                </mxCell>
                <mxCell id="f_4cNn8Xf5raTIrdPCln-17" value="ngân hàng câu hỏi" style="swimlane;childLayout=stackLayout;horizontal=1;startSize=30;horizontalStack=0;rounded=1;fontSize=14;fontStyle=0;strokeWidth=2;resizeParent=0;resizeLast=1;shadow=0;dashed=0;align=center;" parent="1" vertex="1">
                    <mxGeometry x="390" y="380" width="160" height="120" as="geometry"/>
                </mxCell>
                <mxCell id="f_4cNn8Xf5raTIrdPCln-18" value="+các mã bộ câu hỏi" style="align=left;strokeColor=none;fillColor=none;spacingLeft=4;fontSize=12;verticalAlign=top;resizable=0;rotatable=0;part=1;" parent="f_4cNn8Xf5raTIrdPCln-17" vertex="1">
                    <mxGeometry y="30" width="160" height="90" as="geometry"/>
                </mxCell>
                <mxCell id="f_4cNn8Xf5raTIrdPCln-19" value="livestream" style="swimlane;childLayout=stackLayout;horizontal=1;startSize=30;horizontalStack=0;rounded=1;fontSize=14;fontStyle=0;strokeWidth=2;resizeParent=0;resizeLast=1;shadow=0;dashed=0;align=center;" parent="1" vertex="1">
                    <mxGeometry x="-30" y="385" width="160" height="130" as="geometry"/>
                </mxCell>
                <mxCell id="f_4cNn8Xf5raTIrdPCln-20" value="+mã livestream&#10;+tên&#10;+mã giảng viên&#10;+tên giảng viên&#10;+thời gian tạo&#10;+bản ghi livestream" style="align=left;strokeColor=none;fillColor=none;spacingLeft=4;fontSize=12;verticalAlign=top;resizable=0;rotatable=0;part=1;" parent="f_4cNn8Xf5raTIrdPCln-19" vertex="1">
                    <mxGeometry y="30" width="160" height="100" as="geometry"/>
                </mxCell>
                <mxCell id="f_4cNn8Xf5raTIrdPCln-23" value="user" style="swimlane;childLayout=stackLayout;horizontal=1;startSize=30;horizontalStack=0;rounded=1;fontSize=14;fontStyle=0;strokeWidth=2;resizeParent=0;resizeLast=1;shadow=0;dashed=0;align=center;" parent="1" vertex="1">
                    <mxGeometry x="220" y="-110" width="160" height="120" as="geometry"/>
                </mxCell>
                <mxCell id="f_4cNn8Xf5raTIrdPCln-24" value="+tên&#10;+id" style="align=left;strokeColor=none;fillColor=none;spacingLeft=4;fontSize=12;verticalAlign=top;resizable=0;rotatable=0;part=1;" parent="f_4cNn8Xf5raTIrdPCln-23" vertex="1">
                    <mxGeometry y="30" width="160" height="90" as="geometry"/>
                </mxCell>
                <mxCell id="f_4cNn8Xf5raTIrdPCln-28" value="bộ câu hỏi" style="swimlane;childLayout=stackLayout;horizontal=1;startSize=30;horizontalStack=0;rounded=1;fontSize=14;fontStyle=0;strokeWidth=2;resizeParent=0;resizeLast=1;shadow=0;dashed=0;align=center;" parent="1" vertex="1">
                    <mxGeometry x="650" y="380" width="160" height="120" as="geometry"/>
                </mxCell>
                <mxCell id="f_4cNn8Xf5raTIrdPCln-29" value="+mã bộ câu hỏi&#10;+tên&#10;+ngày tạo&#10;+mã giảng viên&#10;+tên giảng viên" style="align=left;strokeColor=none;fillColor=none;spacingLeft=4;fontSize=12;verticalAlign=top;resizable=0;rotatable=0;part=1;" parent="f_4cNn8Xf5raTIrdPCln-28" vertex="1">
                    <mxGeometry y="30" width="160" height="90" as="geometry"/>
                </mxCell>
                <mxCell id="f_4cNn8Xf5raTIrdPCln-30" value="câu hỏi" style="swimlane;childLayout=stackLayout;horizontal=1;startSize=30;horizontalStack=0;rounded=1;fontSize=14;fontStyle=0;strokeWidth=2;resizeParent=0;resizeLast=1;shadow=0;dashed=0;align=center;" parent="1" vertex="1">
                    <mxGeometry x="890" y="380" width="160" height="120" as="geometry"/>
                </mxCell>
                <mxCell id="f_4cNn8Xf5raTIrdPCln-31" value="+mã câu hỏi&#10;+nội dung &#10;+các phương án trả lời&#10;+đáp án" style="align=left;strokeColor=none;fillColor=none;spacingLeft=4;fontSize=12;verticalAlign=top;resizable=0;rotatable=0;part=1;" parent="f_4cNn8Xf5raTIrdPCln-30" vertex="1">
                    <mxGeometry y="30" width="160" height="90" as="geometry"/>
                </mxCell>
                <mxCell id="f_4cNn8Xf5raTIrdPCln-32" style="edgeStyle=none;html=1;exitX=1;exitY=0.5;exitDx=0;exitDy=0;entryX=0;entryY=0.5;entryDx=0;entryDy=0;" parent="1" source="f_4cNn8Xf5raTIrdPCln-18" target="f_4cNn8Xf5raTIrdPCln-29" edge="1">
                    <mxGeometry relative="1" as="geometry"/>
                </mxCell>
                <mxCell id="f_4cNn8Xf5raTIrdPCln-33" style="edgeStyle=none;html=1;exitX=1;exitY=0.5;exitDx=0;exitDy=0;entryX=0;entryY=0.5;entryDx=0;entryDy=0;" parent="1" source="f_4cNn8Xf5raTIrdPCln-29" target="f_4cNn8Xf5raTIrdPCln-31" edge="1">
                    <mxGeometry relative="1" as="geometry"/>
                </mxCell>
                <mxCell id="f_4cNn8Xf5raTIrdPCln-34" style="edgeStyle=none;html=1;exitX=0.5;exitY=1;exitDx=0;exitDy=0;entryX=0.5;entryY=0;entryDx=0;entryDy=0;" parent="1" source="f_4cNn8Xf5raTIrdPCln-8" target="f_4cNn8Xf5raTIrdPCln-17" edge="1">
                    <mxGeometry relative="1" as="geometry"/>
                </mxCell>
                <mxCell id="f_4cNn8Xf5raTIrdPCln-35" style="edgeStyle=none;html=1;exitX=0.5;exitY=0;exitDx=0;exitDy=0;entryX=0.25;entryY=1;entryDx=0;entryDy=0;" parent="1" source="f_4cNn8Xf5raTIrdPCln-15" target="f_4cNn8Xf5raTIrdPCln-8" edge="1">
                    <mxGeometry relative="1" as="geometry"/>
                </mxCell>
                <mxCell id="f_4cNn8Xf5raTIrdPCln-36" style="edgeStyle=none;html=1;exitX=0.5;exitY=1;exitDx=0;exitDy=0;entryX=0.5;entryY=0;entryDx=0;entryDy=0;" parent="1" source="f_4cNn8Xf5raTIrdPCln-6" target="f_4cNn8Xf5raTIrdPCln-11" edge="1">
                    <mxGeometry relative="1" as="geometry"/>
                </mxCell>
                <mxCell id="f_4cNn8Xf5raTIrdPCln-37" style="edgeStyle=none;html=1;exitX=0.75;exitY=1;exitDx=0;exitDy=0;entryX=0.25;entryY=0;entryDx=0;entryDy=0;" parent="1" source="f_4cNn8Xf5raTIrdPCln-6" target="f_4cNn8Xf5raTIrdPCln-15" edge="1">
                    <mxGeometry relative="1" as="geometry"/>
                </mxCell>
                <mxCell id="f_4cNn8Xf5raTIrdPCln-38" style="edgeStyle=none;html=1;exitX=0.25;exitY=1;exitDx=0;exitDy=0;entryX=1;entryY=0;entryDx=0;entryDy=0;" parent="1" source="f_4cNn8Xf5raTIrdPCln-10" target="f_4cNn8Xf5raTIrdPCln-15" edge="1">
                    <mxGeometry relative="1" as="geometry"/>
                </mxCell>
                <mxCell id="f_4cNn8Xf5raTIrdPCln-42" style="edgeStyle=none;html=1;exitX=0;exitY=1;exitDx=0;exitDy=0;entryX=0.5;entryY=0;entryDx=0;entryDy=0;" parent="1" source="f_4cNn8Xf5raTIrdPCln-8" target="f_4cNn8Xf5raTIrdPCln-19" edge="1">
                    <mxGeometry relative="1" as="geometry"/>
                </mxCell>
            </root>
        </mxGraphModel>
    </diagram>
    <diagram id="JhdnxaPHLFJS0fV4uYRt" name="Page-5">
        <mxGraphModel dx="1242" dy="611" grid="1" gridSize="10" guides="1" tooltips="1" connect="1" arrows="1" fold="1" page="1" pageScale="1" pageWidth="850" pageHeight="1100" math="0" shadow="0">
            <root>
                <mxCell id="0"/>
                <mxCell id="1" parent="0"/>
                <mxCell id="z4f3jLtNnxDXeQAk1eZQ-1" value="Admin" style="text;html=1;strokeColor=none;fillColor=none;align=center;verticalAlign=middle;whiteSpace=wrap;rounded=0;" parent="1" vertex="1">
                    <mxGeometry x="230" y="130" width="60" height="30" as="geometry"/>
                </mxCell>
                <mxCell id="z4f3jLtNnxDXeQAk1eZQ-4" value="" style="endArrow=none;html=1;entryX=0.5;entryY=1;entryDx=0;entryDy=0;startArrow=none;" parent="1" source="z4f3jLtNnxDXeQAk1eZQ-7" target="z4f3jLtNnxDXeQAk1eZQ-1" edge="1">
                    <mxGeometry width="50" height="50" relative="1" as="geometry">
                        <mxPoint x="260" y="450" as="sourcePoint"/>
                        <mxPoint x="450" y="290" as="targetPoint"/>
                    </mxGeometry>
                </mxCell>
                <mxCell id="z4f3jLtNnxDXeQAk1eZQ-8" value="" style="endArrow=none;html=1;entryX=0.5;entryY=1;entryDx=0;entryDy=0;startArrow=none;" parent="1" target="z4f3jLtNnxDXeQAk1eZQ-7" edge="1">
                    <mxGeometry width="50" height="50" relative="1" as="geometry">
                        <mxPoint x="260" y="440" as="sourcePoint"/>
                        <mxPoint x="260" y="160" as="targetPoint"/>
                    </mxGeometry>
                </mxCell>
                <mxCell id="z4f3jLtNnxDXeQAk1eZQ-7" value="" style="html=1;points=[];perimeter=orthogonalPerimeter;fillColor=strokeColor;" parent="1" vertex="1">
                    <mxGeometry x="257.5" y="170" width="5" height="250" as="geometry"/>
                </mxCell>
                <mxCell id="Y9nVoMMKzpGFVRQuwT4A-1" value="&amp;nbsp;Server" style="text;html=1;strokeColor=none;fillColor=none;align=center;verticalAlign=middle;whiteSpace=wrap;rounded=0;" vertex="1" parent="1">
                    <mxGeometry x="425" y="130" width="60" height="30" as="geometry"/>
                </mxCell>
                <mxCell id="Y9nVoMMKzpGFVRQuwT4A-2" value="" style="endArrow=none;html=1;entryX=0.5;entryY=1;entryDx=0;entryDy=0;startArrow=none;" edge="1" parent="1" source="Y9nVoMMKzpGFVRQuwT4A-4" target="Y9nVoMMKzpGFVRQuwT4A-1">
                    <mxGeometry width="50" height="50" relative="1" as="geometry">
                        <mxPoint x="455" y="450" as="sourcePoint"/>
                        <mxPoint x="645" y="290" as="targetPoint"/>
                    </mxGeometry>
                </mxCell>
                <mxCell id="Y9nVoMMKzpGFVRQuwT4A-3" value="" style="endArrow=none;html=1;entryX=0.5;entryY=1;entryDx=0;entryDy=0;startArrow=none;" edge="1" parent="1" target="Y9nVoMMKzpGFVRQuwT4A-4" source="Y9nVoMMKzpGFVRQuwT4A-14">
                    <mxGeometry width="50" height="50" relative="1" as="geometry">
                        <mxPoint x="455" y="440" as="sourcePoint"/>
                        <mxPoint x="455" y="160" as="targetPoint"/>
                    </mxGeometry>
                </mxCell>
                <mxCell id="Y9nVoMMKzpGFVRQuwT4A-4" value="" style="html=1;points=[];perimeter=orthogonalPerimeter;fillColor=strokeColor;" vertex="1" parent="1">
                    <mxGeometry x="452.5" y="170" width="5" height="60" as="geometry"/>
                </mxCell>
                <mxCell id="Y9nVoMMKzpGFVRQuwT4A-5" value="Database" style="text;html=1;strokeColor=none;fillColor=none;align=center;verticalAlign=middle;whiteSpace=wrap;rounded=0;" vertex="1" parent="1">
                    <mxGeometry x="600" y="130" width="60" height="30" as="geometry"/>
                </mxCell>
                <mxCell id="Y9nVoMMKzpGFVRQuwT4A-6" value="" style="endArrow=none;html=1;entryX=0.5;entryY=1;entryDx=0;entryDy=0;startArrow=none;" edge="1" parent="1" source="Y9nVoMMKzpGFVRQuwT4A-8" target="Y9nVoMMKzpGFVRQuwT4A-5">
                    <mxGeometry width="50" height="50" relative="1" as="geometry">
                        <mxPoint x="630" y="450" as="sourcePoint"/>
                        <mxPoint x="820" y="290" as="targetPoint"/>
                    </mxGeometry>
                </mxCell>
                <mxCell id="Y9nVoMMKzpGFVRQuwT4A-7" value="" style="endArrow=none;html=1;entryX=0.5;entryY=1;entryDx=0;entryDy=0;startArrow=none;" edge="1" parent="1" target="Y9nVoMMKzpGFVRQuwT4A-8">
                    <mxGeometry width="50" height="50" relative="1" as="geometry">
                        <mxPoint x="630" y="350" as="sourcePoint"/>
                        <mxPoint x="630" y="160" as="targetPoint"/>
                    </mxGeometry>
                </mxCell>
                <mxCell id="Y9nVoMMKzpGFVRQuwT4A-8" value="" style="html=1;points=[];perimeter=orthogonalPerimeter;fillColor=strokeColor;" vertex="1" parent="1">
                    <mxGeometry x="627.5" y="260" width="5" height="80" as="geometry"/>
                </mxCell>
                <mxCell id="Y9nVoMMKzpGFVRQuwT4A-9" value="" style="endArrow=classic;html=1;" edge="1" parent="1">
                    <mxGeometry width="50" height="50" relative="1" as="geometry">
                        <mxPoint x="260" y="182" as="sourcePoint"/>
                        <mxPoint x="450" y="182" as="targetPoint"/>
                    </mxGeometry>
                </mxCell>
                <mxCell id="Y9nVoMMKzpGFVRQuwT4A-10" value="Chọn thêm mới khóa học" style="edgeLabel;html=1;align=center;verticalAlign=middle;resizable=0;points=[];" vertex="1" connectable="0" parent="Y9nVoMMKzpGFVRQuwT4A-9">
                    <mxGeometry x="-0.1845" y="-3" relative="1" as="geometry">
                        <mxPoint x="12" as="offset"/>
                    </mxGeometry>
                </mxCell>
                <mxCell id="Y9nVoMMKzpGFVRQuwT4A-12" value="" style="endArrow=classic;html=1;entryX=0.94;entryY=0.21;entryDx=0;entryDy=0;entryPerimeter=0;" edge="1" parent="1" target="z4f3jLtNnxDXeQAk1eZQ-7">
                    <mxGeometry width="50" height="50" relative="1" as="geometry">
                        <mxPoint x="450" y="220" as="sourcePoint"/>
                        <mxPoint x="620" y="290" as="targetPoint"/>
                    </mxGeometry>
                </mxCell>
                <mxCell id="Y9nVoMMKzpGFVRQuwT4A-13" value="Yêu cầu thông tin" style="edgeLabel;html=1;align=center;verticalAlign=middle;resizable=0;points=[];" vertex="1" connectable="0" parent="Y9nVoMMKzpGFVRQuwT4A-12">
                    <mxGeometry x="0.1481" relative="1" as="geometry">
                        <mxPoint as="offset"/>
                    </mxGeometry>
                </mxCell>
                <mxCell id="Y9nVoMMKzpGFVRQuwT4A-15" value="" style="endArrow=none;html=1;entryX=0.5;entryY=1;entryDx=0;entryDy=0;startArrow=none;" edge="1" parent="1" target="Y9nVoMMKzpGFVRQuwT4A-14">
                    <mxGeometry width="50" height="50" relative="1" as="geometry">
                        <mxPoint x="455" y="440" as="sourcePoint"/>
                        <mxPoint x="455" y="230" as="targetPoint"/>
                    </mxGeometry>
                </mxCell>
                <mxCell id="Y9nVoMMKzpGFVRQuwT4A-14" value="" style="html=1;points=[];perimeter=orthogonalPerimeter;fillColor=strokeColor;" vertex="1" parent="1">
                    <mxGeometry x="452.5" y="250" width="5" height="110" as="geometry"/>
                </mxCell>
                <mxCell id="Y9nVoMMKzpGFVRQuwT4A-17" value="" style="endArrow=classic;html=1;exitX=1.1;exitY=0.366;exitDx=0;exitDy=0;exitPerimeter=0;entryX=0.18;entryY=0.113;entryDx=0;entryDy=0;entryPerimeter=0;" edge="1" parent="1" source="z4f3jLtNnxDXeQAk1eZQ-7" target="Y9nVoMMKzpGFVRQuwT4A-14">
                    <mxGeometry width="50" height="50" relative="1" as="geometry">
                        <mxPoint x="570" y="340" as="sourcePoint"/>
                        <mxPoint x="620" y="290" as="targetPoint"/>
                    </mxGeometry>
                </mxCell>
                <mxCell id="Y9nVoMMKzpGFVRQuwT4A-18" value="Nhập thông tin" style="edgeLabel;html=1;align=center;verticalAlign=middle;resizable=0;points=[];" vertex="1" connectable="0" parent="Y9nVoMMKzpGFVRQuwT4A-17">
                    <mxGeometry x="-0.1785" relative="1" as="geometry">
                        <mxPoint as="offset"/>
                    </mxGeometry>
                </mxCell>
                <mxCell id="Y9nVoMMKzpGFVRQuwT4A-19" value="" style="endArrow=classic;html=1;entryX=1.02;entryY=0.31;entryDx=0;entryDy=0;entryPerimeter=0;" edge="1" parent="1" target="Y9nVoMMKzpGFVRQuwT4A-8">
                    <mxGeometry width="50" height="50" relative="1" as="geometry">
                        <mxPoint x="460" y="290" as="sourcePoint"/>
                        <mxPoint x="620" y="290" as="targetPoint"/>
                    </mxGeometry>
                </mxCell>
                <mxCell id="Y9nVoMMKzpGFVRQuwT4A-20" value="Cập nhật thông tin&amp;nbsp;" style="edgeLabel;html=1;align=center;verticalAlign=middle;resizable=0;points=[];" vertex="1" connectable="0" parent="Y9nVoMMKzpGFVRQuwT4A-19">
                    <mxGeometry x="-0.169" relative="1" as="geometry">
                        <mxPoint x="10" as="offset"/>
                    </mxGeometry>
                </mxCell>
                <mxCell id="Y9nVoMMKzpGFVRQuwT4A-26" value="lưu thông tin" style="edgeStyle=orthogonalEdgeStyle;html=1;align=left;spacingLeft=2;endArrow=block;rounded=0;entryX=1;entryY=0;" edge="1" parent="1">
                    <mxGeometry relative="1" as="geometry">
                        <mxPoint x="630" y="290" as="sourcePoint"/>
                        <Array as="points">
                            <mxPoint x="660" y="290"/>
                            <mxPoint x="660" y="310"/>
                        </Array>
                        <mxPoint x="635" y="310" as="targetPoint"/>
                    </mxGeometry>
                </mxCell>
                <mxCell id="Y9nVoMMKzpGFVRQuwT4A-27" value="" style="endArrow=none;html=1;entryX=0.5;entryY=1;entryDx=0;entryDy=0;startArrow=none;" edge="1" parent="1">
                    <mxGeometry width="50" height="50" relative="1" as="geometry">
                        <mxPoint x="630" y="440" as="sourcePoint"/>
                        <mxPoint x="630" y="350" as="targetPoint"/>
                    </mxGeometry>
                </mxCell>
                <mxCell id="Y9nVoMMKzpGFVRQuwT4A-33" value="trả kết quả" style="html=1;verticalAlign=bottom;endArrow=open;dashed=1;endSize=8;" edge="1" parent="1">
                    <mxGeometry relative="1" as="geometry">
                        <mxPoint x="630" y="330" as="sourcePoint"/>
                        <mxPoint x="460" y="330" as="targetPoint"/>
                    </mxGeometry>
                </mxCell>
                <mxCell id="Y9nVoMMKzpGFVRQuwT4A-35" value="trả kết quả" style="html=1;verticalAlign=bottom;endArrow=open;dashed=1;endSize=8;" edge="1" parent="1" target="z4f3jLtNnxDXeQAk1eZQ-7">
                    <mxGeometry relative="1" as="geometry">
                        <mxPoint x="452.5" y="350" as="sourcePoint"/>
                        <mxPoint x="372.5" y="350" as="targetPoint"/>
                    </mxGeometry>
                </mxCell>
            </root>
        </mxGraphModel>
    </diagram>
    <diagram id="7iQsYTelGmgoE1L2aU12" name="Page-6">
        <mxGraphModel dx="1242" dy="611" grid="1" gridSize="10" guides="1" tooltips="1" connect="1" arrows="1" fold="1" page="1" pageScale="1" pageWidth="850" pageHeight="1100" math="0" shadow="0">
            <root>
                <mxCell id="0"/>
                <mxCell id="1" parent="0"/>
                <mxCell id="Ke8ahmCjZT0KfIh7pplC-3" value="&amp;laquo;Annotation&amp;raquo;&lt;br/&gt;&lt;b&gt;Component&lt;/b&gt;" style="html=1;dropTarget=0;" parent="1" vertex="1">
                    <mxGeometry x="330" y="270" width="180" height="90" as="geometry"/>
                </mxCell>
                <mxCell id="Ke8ahmCjZT0KfIh7pplC-4" value="" style="shape=module;jettyWidth=8;jettyHeight=4;" parent="Ke8ahmCjZT0KfIh7pplC-3" vertex="1">
                    <mxGeometry x="1" width="20" height="20" relative="1" as="geometry">
                        <mxPoint x="-27" y="7" as="offset"/>
                    </mxGeometry>
                </mxCell>
            </root>
        </mxGraphModel>
    </diagram>
    <diagram id="2ZkEzEp-KSMGMjfWct91" name="Page-1">
        <mxGraphModel dx="2092" dy="611" grid="1" gridSize="10" guides="1" tooltips="1" connect="1" arrows="1" fold="1" page="1" pageScale="1" pageWidth="850" pageHeight="1100" math="0" shadow="0">
            <root>
                <mxCell id="0"/>
                <mxCell id="1" parent="0"/>
                <mxCell id="rTo4e2nd4JD47wG6YWbz-19" style="edgeStyle=none;html=1;exitX=1;exitY=0.5;exitDx=0;exitDy=0;exitPerimeter=0;entryX=0;entryY=0.5;entryDx=0;entryDy=0;" parent="1" source="rTo4e2nd4JD47wG6YWbz-2" target="rTo4e2nd4JD47wG6YWbz-18" edge="1">
                    <mxGeometry relative="1" as="geometry"/>
                </mxCell>
                <mxCell id="rTo4e2nd4JD47wG6YWbz-2" value="&lt;font style=&quot;font-size: 14px;&quot;&gt;Khởi động &lt;br&gt;ứng dụng&lt;/font&gt;" style="html=1;dashed=0;whitespace=wrap;shape=mxgraph.dfd.start;fillColor=#CCFFFF;" parent="1" vertex="1">
                    <mxGeometry x="-90" y="510" width="110" height="40" as="geometry"/>
                </mxCell>
                <mxCell id="rTo4e2nd4JD47wG6YWbz-18" value="&lt;font style=&quot;font-size: 14px;&quot;&gt;Tạo ví&lt;/font&gt;" style="html=1;align=center;verticalAlign=middle;rounded=1;absoluteArcSize=1;arcSize=0;dashed=1;fillColor=#E6FFCC;" parent="1" vertex="1">
                    <mxGeometry x="70" y="497.5" width="100" height="65" as="geometry"/>
                </mxCell>
                <mxCell id="rTo4e2nd4JD47wG6YWbz-41" value="" style="edgeStyle=none;html=1;" parent="1" source="rTo4e2nd4JD47wG6YWbz-20" target="rTo4e2nd4JD47wG6YWbz-40" edge="1">
                    <mxGeometry relative="1" as="geometry"/>
                </mxCell>
                <mxCell id="rTo4e2nd4JD47wG6YWbz-20" value="&lt;font style=&quot;font-size: 14px;&quot;&gt;Thêm ghi chép&lt;br&gt;thông tin giao dịch&amp;nbsp;&lt;/font&gt;" style="html=1;align=center;verticalAlign=middle;rounded=1;absoluteArcSize=1;arcSize=0;dashed=1;fillColor=#FFCCCC;" parent="1" vertex="1">
                    <mxGeometry x="260" y="400" width="120" height="70" as="geometry"/>
                </mxCell>
                <mxCell id="rTo4e2nd4JD47wG6YWbz-46" value="" style="edgeStyle=none;html=1;" parent="1" source="rTo4e2nd4JD47wG6YWbz-22" target="rTo4e2nd4JD47wG6YWbz-45" edge="1">
                    <mxGeometry relative="1" as="geometry"/>
                </mxCell>
                <mxCell id="rTo4e2nd4JD47wG6YWbz-22" value="&lt;font style=&quot;font-size: 14px;&quot;&gt;Cập nhật tiến &lt;br&gt;trình&amp;nbsp;ngân sách&lt;/font&gt;" style="html=1;align=center;verticalAlign=middle;rounded=1;absoluteArcSize=1;arcSize=0;dashed=1;fillColor=#FFE6CC;" parent="1" vertex="1">
                    <mxGeometry x="900" y="310" width="120" height="60" as="geometry"/>
                </mxCell>
                <mxCell id="rTo4e2nd4JD47wG6YWbz-27" style="edgeStyle=none;html=1;exitX=0.5;exitY=0;exitDx=0;exitDy=0;entryX=0.5;entryY=1;entryDx=0;entryDy=0;" parent="1" source="rTo4e2nd4JD47wG6YWbz-24" target="rTo4e2nd4JD47wG6YWbz-20" edge="1">
                    <mxGeometry relative="1" as="geometry"/>
                </mxCell>
                <mxCell id="rTo4e2nd4JD47wG6YWbz-24" value="&lt;font style=&quot;font-size: 14px;&quot;&gt;Tạo ngân sách&lt;/font&gt;" style="html=1;align=center;verticalAlign=middle;rounded=1;absoluteArcSize=1;arcSize=0;dashed=1;fillColor=#CCFFCC;" parent="1" vertex="1">
                    <mxGeometry x="270" y="610" width="100" height="60" as="geometry"/>
                </mxCell>
                <mxCell id="rTo4e2nd4JD47wG6YWbz-31" value="" style="edgeStyle=none;html=1;" parent="1" source="rTo4e2nd4JD47wG6YWbz-28" target="rTo4e2nd4JD47wG6YWbz-30" edge="1">
                    <mxGeometry relative="1" as="geometry"/>
                </mxCell>
                <mxCell id="rTo4e2nd4JD47wG6YWbz-28" value="&lt;font style=&quot;font-size: 14px;&quot;&gt;Xử lý thông tin số liệu &lt;br&gt;của những giao dịch&lt;/font&gt;" style="html=1;align=center;verticalAlign=middle;rounded=1;absoluteArcSize=1;arcSize=0;dashed=1;fillColor=#FFFFCC;" parent="1" vertex="1">
                    <mxGeometry x="900" y="470" width="170" height="70" as="geometry"/>
                </mxCell>
                <mxCell id="rTo4e2nd4JD47wG6YWbz-70" style="edgeStyle=none;html=1;exitX=1;exitY=0.5;exitDx=0;exitDy=0;entryX=0;entryY=0.5;entryDx=0;entryDy=0;fontSize=14;" parent="1" source="rTo4e2nd4JD47wG6YWbz-30" target="rTo4e2nd4JD47wG6YWbz-55" edge="1">
                    <mxGeometry relative="1" as="geometry"/>
                </mxCell>
                <mxCell id="rTo4e2nd4JD47wG6YWbz-30" value="&lt;font style=&quot;font-size: 14px;&quot;&gt;Trực quan hóa thông &lt;br&gt;tin&amp;nbsp;bằng các biểu đồ&lt;/font&gt;" style="html=1;align=center;verticalAlign=middle;rounded=1;absoluteArcSize=1;arcSize=0;dashed=1;fillColor=#FFFFCC;" parent="1" vertex="1">
                    <mxGeometry x="1125" y="470" width="150" height="70" as="geometry"/>
                </mxCell>
                <mxCell id="rTo4e2nd4JD47wG6YWbz-37" value="&lt;font style=&quot;font-size: 14px;&quot;&gt;Lấy dữ liệu về những &lt;br&gt;giao dịch từ cơ sở dữ liệu&lt;/font&gt;" style="html=1;align=center;verticalAlign=middle;rounded=1;absoluteArcSize=1;arcSize=0;dashed=1;fillColor=#FFCCCC;" parent="1" vertex="1">
                    <mxGeometry x="630" y="400" width="180" height="70" as="geometry"/>
                </mxCell>
                <mxCell id="rTo4e2nd4JD47wG6YWbz-42" style="edgeStyle=none;html=1;exitX=1;exitY=0.5;exitDx=0;exitDy=0;entryX=0;entryY=0.5;entryDx=0;entryDy=0;" parent="1" source="rTo4e2nd4JD47wG6YWbz-40" target="rTo4e2nd4JD47wG6YWbz-37" edge="1">
                    <mxGeometry relative="1" as="geometry">
                        <mxPoint x="660" y="395" as="targetPoint"/>
                    </mxGeometry>
                </mxCell>
                <mxCell id="rTo4e2nd4JD47wG6YWbz-40" value="&lt;font style=&quot;font-size: 14px;&quot;&gt;Lưu trữ thông tin &lt;br&gt;vào cơ sở dữ liệu&lt;/font&gt;" style="html=1;align=center;verticalAlign=middle;rounded=1;absoluteArcSize=1;arcSize=0;dashed=1;fillColor=#FFCCCC;" parent="1" vertex="1">
                    <mxGeometry x="440" y="400" width="130" height="70" as="geometry"/>
                </mxCell>
                <mxCell id="rTo4e2nd4JD47wG6YWbz-48" style="edgeStyle=none;html=1;exitX=1;exitY=0.5;exitDx=0;exitDy=0;entryX=0;entryY=0.5;entryDx=0;entryDy=0;" parent="1" source="rTo4e2nd4JD47wG6YWbz-45" target="rTo4e2nd4JD47wG6YWbz-76" edge="1">
                    <mxGeometry relative="1" as="geometry">
                        <mxPoint x="1250" y="340" as="targetPoint"/>
                    </mxGeometry>
                </mxCell>
                <mxCell id="rTo4e2nd4JD47wG6YWbz-45" value="&lt;font style=&quot;font-size: 14px;&quot;&gt;Kiểm tra trạng&lt;br&gt;&amp;nbsp;thái của những &lt;br&gt;ngân sách&lt;/font&gt;" style="html=1;align=center;verticalAlign=middle;rounded=1;absoluteArcSize=1;arcSize=0;dashed=1;fillColor=#FFE6CC;" parent="1" vertex="1">
                    <mxGeometry x="1070" y="300" width="120" height="80" as="geometry"/>
                </mxCell>
                <mxCell id="rTo4e2nd4JD47wG6YWbz-50" value="" style="edgeStyle=none;html=1;entryX=0;entryY=0.5;entryDx=0;entryDy=0;exitX=1;exitY=0.5;exitDx=0;exitDy=0;" parent="1" source="rTo4e2nd4JD47wG6YWbz-76" target="rTo4e2nd4JD47wG6YWbz-49" edge="1">
                    <mxGeometry relative="1" as="geometry">
                        <mxPoint x="1390" y="340" as="sourcePoint"/>
                        <mxPoint x="1410" y="377" as="targetPoint"/>
                    </mxGeometry>
                </mxCell>
                <mxCell id="rTo4e2nd4JD47wG6YWbz-51" value="&lt;font style=&quot;font-size: 14px;&quot;&gt;Có&lt;/font&gt;" style="edgeLabel;html=1;align=center;verticalAlign=middle;resizable=0;points=[];" parent="rTo4e2nd4JD47wG6YWbz-50" vertex="1" connectable="0">
                    <mxGeometry x="-0.504" y="-1" relative="1" as="geometry">
                        <mxPoint x="8" y="-21" as="offset"/>
                    </mxGeometry>
                </mxCell>
                <mxCell id="rTo4e2nd4JD47wG6YWbz-52" style="edgeStyle=none;html=1;exitX=0.5;exitY=0;exitDx=0;exitDy=0;entryX=0.5;entryY=0;entryDx=0;entryDy=0;fontSize=14;" parent="1" source="rTo4e2nd4JD47wG6YWbz-76" target="rTo4e2nd4JD47wG6YWbz-20" edge="1">
                    <mxGeometry relative="1" as="geometry">
                        <mxPoint x="1320" y="296.25" as="sourcePoint"/>
                        <Array as="points">
                            <mxPoint x="1320" y="260"/>
                            <mxPoint x="320" y="260"/>
                        </Array>
                    </mxGeometry>
                </mxCell>
                <mxCell id="rTo4e2nd4JD47wG6YWbz-53" value="Không" style="edgeLabel;html=1;align=center;verticalAlign=middle;resizable=0;points=[];fontSize=14;" parent="rTo4e2nd4JD47wG6YWbz-52" vertex="1" connectable="0">
                    <mxGeometry x="-0.9154" y="1" relative="1" as="geometry">
                        <mxPoint x="-51" y="19" as="offset"/>
                    </mxGeometry>
                </mxCell>
                <mxCell id="rTo4e2nd4JD47wG6YWbz-69" style="edgeStyle=none;html=1;exitX=0.5;exitY=1;exitDx=0;exitDy=0;entryX=0.5;entryY=0;entryDx=0;entryDy=0;fontSize=14;" parent="1" source="rTo4e2nd4JD47wG6YWbz-49" target="rTo4e2nd4JD47wG6YWbz-55" edge="1">
                    <mxGeometry relative="1" as="geometry"/>
                </mxCell>
                <mxCell id="rTo4e2nd4JD47wG6YWbz-49" value="&lt;font style=&quot;font-size: 14px;&quot;&gt;Thực hiện &lt;br&gt;thông báo nội bộ&lt;/font&gt;" style="html=1;align=center;verticalAlign=middle;rounded=1;absoluteArcSize=1;arcSize=0;dashed=1;fillColor=#FFE6CC;" parent="1" vertex="1">
                    <mxGeometry x="1440" y="310" width="130" height="60" as="geometry"/>
                </mxCell>
                <mxCell id="rTo4e2nd4JD47wG6YWbz-54" value="Kết thúc" style="html=1;dashed=0;whitespace=wrap;shape=mxgraph.dfd.start;fontSize=14;fillColor=#CCFFFF;" parent="1" vertex="1">
                    <mxGeometry x="1670" y="485" width="110" height="40" as="geometry"/>
                </mxCell>
                <mxCell id="rTo4e2nd4JD47wG6YWbz-71" value="Không" style="edgeStyle=none;html=1;exitX=1;exitY=0.5;exitDx=0;exitDy=0;entryX=0;entryY=0.5;entryDx=0;entryDy=0;entryPerimeter=0;fontSize=14;" parent="1" source="rTo4e2nd4JD47wG6YWbz-55" target="rTo4e2nd4JD47wG6YWbz-54" edge="1">
                    <mxGeometry y="15" relative="1" as="geometry">
                        <mxPoint x="-1" as="offset"/>
                    </mxGeometry>
                </mxCell>
                <mxCell id="rTo4e2nd4JD47wG6YWbz-55" value="Tiếp tục ghi &lt;br&gt;chép giao dịch?" style="shape=rhombus;html=1;dashed=0;whitespace=wrap;perimeter=rhombusPerimeter;fontSize=14;fillColor=#E5CCFF;" parent="1" vertex="1">
                    <mxGeometry x="1420" y="455" width="170" height="100" as="geometry"/>
                </mxCell>
                <mxCell id="rTo4e2nd4JD47wG6YWbz-58" value="" style="endArrow=none;html=1;fontSize=14;" parent="1" edge="1">
                    <mxGeometry width="50" height="50" relative="1" as="geometry">
                        <mxPoint x="210" y="640" as="sourcePoint"/>
                        <mxPoint x="210" y="440" as="targetPoint"/>
                    </mxGeometry>
                </mxCell>
                <mxCell id="rTo4e2nd4JD47wG6YWbz-59" value="" style="endArrow=classic;html=1;fontSize=14;" parent="1" edge="1">
                    <mxGeometry width="50" height="50" relative="1" as="geometry">
                        <mxPoint x="210" y="440" as="sourcePoint"/>
                        <mxPoint x="260" y="440" as="targetPoint"/>
                    </mxGeometry>
                </mxCell>
                <mxCell id="rTo4e2nd4JD47wG6YWbz-60" value="" style="endArrow=classic;html=1;fontSize=14;entryX=0;entryY=0.5;entryDx=0;entryDy=0;" parent="1" target="rTo4e2nd4JD47wG6YWbz-24" edge="1">
                    <mxGeometry width="50" height="50" relative="1" as="geometry">
                        <mxPoint x="210" y="640" as="sourcePoint"/>
                        <mxPoint x="260" y="610" as="targetPoint"/>
                    </mxGeometry>
                </mxCell>
                <mxCell id="rTo4e2nd4JD47wG6YWbz-61" value="" style="endArrow=none;html=1;fontSize=14;" parent="1" edge="1">
                    <mxGeometry width="50" height="50" relative="1" as="geometry">
                        <mxPoint x="210" y="530" as="sourcePoint"/>
                        <mxPoint x="170" y="530" as="targetPoint"/>
                    </mxGeometry>
                </mxCell>
                <mxCell id="rTo4e2nd4JD47wG6YWbz-64" value="" style="endArrow=none;html=1;fontSize=14;" parent="1" edge="1">
                    <mxGeometry width="50" height="50" relative="1" as="geometry">
                        <mxPoint x="850" y="509.25" as="sourcePoint"/>
                        <mxPoint x="850" y="339.25" as="targetPoint"/>
                    </mxGeometry>
                </mxCell>
                <mxCell id="rTo4e2nd4JD47wG6YWbz-65" value="" style="endArrow=classic;html=1;fontSize=14;" parent="1" edge="1">
                    <mxGeometry width="50" height="50" relative="1" as="geometry">
                        <mxPoint x="850" y="339.25" as="sourcePoint"/>
                        <mxPoint x="900" y="339.25" as="targetPoint"/>
                    </mxGeometry>
                </mxCell>
                <mxCell id="rTo4e2nd4JD47wG6YWbz-66" value="" style="endArrow=classic;html=1;fontSize=14;" parent="1" edge="1">
                    <mxGeometry width="50" height="50" relative="1" as="geometry">
                        <mxPoint x="850" y="508.82000000000016" as="sourcePoint"/>
                        <mxPoint x="900" y="509.25" as="targetPoint"/>
                    </mxGeometry>
                </mxCell>
                <mxCell id="rTo4e2nd4JD47wG6YWbz-67" value="" style="endArrow=none;html=1;fontSize=14;" parent="1" edge="1">
                    <mxGeometry width="50" height="50" relative="1" as="geometry">
                        <mxPoint x="850" y="429.25" as="sourcePoint"/>
                        <mxPoint x="810" y="429.25" as="targetPoint"/>
                    </mxGeometry>
                </mxCell>
                <mxCell id="rTo4e2nd4JD47wG6YWbz-74" value="" style="endArrow=none;html=1;fontSize=14;entryX=0.5;entryY=1;entryDx=0;entryDy=0;" parent="1" target="rTo4e2nd4JD47wG6YWbz-55" edge="1">
                    <mxGeometry width="50" height="50" relative="1" as="geometry">
                        <mxPoint x="320" y="580" as="sourcePoint"/>
                        <mxPoint x="850" y="610" as="targetPoint"/>
                        <Array as="points">
                            <mxPoint x="1505" y="580"/>
                        </Array>
                    </mxGeometry>
                </mxCell>
                <mxCell id="rTo4e2nd4JD47wG6YWbz-75" value="Có" style="edgeLabel;html=1;align=center;verticalAlign=middle;resizable=0;points=[];fontSize=14;" parent="rTo4e2nd4JD47wG6YWbz-74" vertex="1" connectable="0">
                    <mxGeometry x="0.7321" y="-1" relative="1" as="geometry">
                        <mxPoint x="42" y="-21" as="offset"/>
                    </mxGeometry>
                </mxCell>
                <mxCell id="rTo4e2nd4JD47wG6YWbz-76" value="Có vượt ngân&lt;br&gt;sách không?" style="shape=rhombus;html=1;dashed=0;whitespace=wrap;perimeter=rhombusPerimeter;fontSize=14;fillColor=#E5CCFF;" parent="1" vertex="1">
                    <mxGeometry x="1250" y="300" width="140" height="80" as="geometry"/>
                </mxCell>
            </root>
        </mxGraphModel>
    </diagram>
</mxfile>